<svg width="121" height="66" viewBox="0 0 121 66" fill="none" xmlns="http://www.w3.org/2000/svg">
<path d="M2.64773 5.25C1.95833 5.25 1.36742 5.00758 0.875 4.52273C0.382576 4.03788 0.140152 3.44697 0.147727 2.75C0.140152 2.06818 0.382576 1.48485 0.875 1C1.36742 0.515151 1.95833 0.272727 2.64773 0.272727C3.31439 0.272727 3.89394 0.515151 4.38636 1C4.88636 1.48485 5.14015 2.06818 5.14773 2.75C5.14015 3.21212 5.01894 3.63258 4.78409 4.01136C4.55682 4.39015 4.25379 4.69318 3.875 4.92045C3.50379 5.14015 3.0947 5.25 2.64773 5.25ZM19.1477 5.25C18.4583 5.25 17.8674 5.00758 17.375 4.52273C16.8826 4.03788 16.6402 3.44697 16.6477 2.75C16.6402 2.06818 16.8826 1.48485 17.375 1C17.8674 0.515151 18.4583 0.272727 19.1477 0.272727C19.8144 0.272727 20.3939 0.515151 20.8864 1C21.3864 1.48485 21.6402 2.06818 21.6477 2.75C21.6402 3.21212 21.5189 3.63258 21.2841 4.01136C21.0568 4.39015 20.7538 4.69318 20.375 4.92045C20.0038 5.14015 19.5947 5.25 19.1477 5.25ZM35.6477 5.25C34.9583 5.25 34.3674 5.00758 33.875 4.52273C33.3826 4.03788 33.1402 3.44697 33.1477 2.75C33.1402 2.06818 33.3826 1.48485 33.875 1C34.3674 0.515151 34.9583 0.272727 35.6477 0.272727C36.3144 0.272727 36.8939 0.515151 37.3864 1C37.8864 1.48485 38.1402 2.06818 38.1477 2.75C38.1402 3.21212 38.0189 3.63258 37.7841 4.01136C37.5568 4.39015 37.2538 4.69318 36.875 4.92045C36.5038 5.14015 36.0947 5.25 35.6477 5.25ZM52.1477 5.25C51.4583 5.25 50.8674 5.00758 50.375 4.52273C49.8826 4.03788 49.6402 3.44697 49.6477 2.75C49.6402 2.06818 49.8826 1.48485 50.375 1C50.8674 0.515151 51.4583 0.272727 52.1477 0.272727C52.8144 0.272727 53.3939 0.515151 53.8864 1C54.3864 1.48485 54.6402 2.06818 54.6477 2.75C54.6402 3.21212 54.5189 3.63258 54.2841 4.01136C54.0568 4.39015 53.7538 4.69318 53.375 4.92045C53.0038 5.14015 52.5947 5.25 52.1477 5.25ZM68.6477 5.25C67.9583 5.25 67.3674 5.00758 66.875 4.52273C66.3826 4.03788 66.1402 3.44697 66.1477 2.75C66.1402 2.06818 66.3826 1.48485 66.875 1C67.3674 0.515151 67.9583 0.272727 68.6477 0.272727C69.3144 0.272727 69.8939 0.515151 70.3864 1C70.8864 1.48485 71.1402 2.06818 71.1477 2.75C71.1402 3.21212 71.0189 3.63258 70.7841 4.01136C70.5568 4.39015 70.2538 4.69318 69.875 4.92045C69.5038 5.14015 69.0947 5.25 68.6477 5.25ZM85.1477 5.25C84.4583 5.25 83.8674 5.00758 83.375 4.52273C82.8826 4.03788 82.6402 3.44697 82.6477 2.75C82.6402 2.06818 82.8826 1.48485 83.375 1C83.8674 0.515151 84.4583 0.272727 85.1477 0.272727C85.8144 0.272727 86.3939 0.515151 86.8864 1C87.3864 1.48485 87.6402 2.06818 87.6477 2.75C87.6402 3.21212 87.5189 3.63258 87.2841 4.01136C87.0568 4.39015 86.7538 4.69318 86.375 4.92045C86.0038 5.14015 85.5947 5.25 85.1477 5.25ZM101.648 5.25C100.958 5.25 100.367 5.00758 99.875 4.52273C99.3826 4.03788 99.1402 3.44697 99.1477 2.75C99.1402 2.06818 99.3826 1.48485 99.875 1C100.367 0.515151 100.958 0.272727 101.648 0.272727C102.314 0.272727 102.894 0.515151 103.386 1C103.886 1.48485 104.14 2.06818 104.148 2.75C104.14 3.21212 104.019 3.63258 103.784 4.01136C103.557 4.39015 103.254 4.69318 102.875 4.92045C102.504 5.14015 102.095 5.25 101.648 5.25ZM118.148 5.25C117.458 5.25 116.867 5.00758 116.375 4.52273C115.883 4.03788 115.64 3.44697 115.648 2.75C115.64 2.06818 115.883 1.48485 116.375 1C116.867 0.515151 117.458 0.272727 118.148 0.272727C118.814 0.272727 119.394 0.515151 119.886 1C120.386 1.48485 120.64 2.06818 120.648 2.75C120.64 3.21212 120.519 3.63258 120.284 4.01136C120.057 4.39015 119.754 4.69318 119.375 4.92045C119.004 5.14015 118.595 5.25 118.148 5.25ZM2.64773 17.25C1.95833 17.25 1.36742 17.0076 0.875 16.5227C0.382576 16.0379 0.140152 15.447 0.147727 14.75C0.140152 14.0682 0.382576 13.4848 0.875 13C1.36742 12.5152 1.95833 12.2727 2.64773 12.2727C3.31439 12.2727 3.89394 12.5152 4.38636 13C4.88636 13.4848 5.14015 14.0682 5.14773 14.75C5.14015 15.2121 5.01894 15.6326 4.78409 16.0114C4.55682 16.3902 4.25379 16.6932 3.875 16.9205C3.50379 17.1402 3.0947 17.25 2.64773 17.25ZM19.1477 17.25C18.4583 17.25 17.8674 17.0076 17.375 16.5227C16.8826 16.0379 16.6402 15.447 16.6477 14.75C16.6402 14.0682 16.8826 13.4848 17.375 13C17.8674 12.5152 18.4583 12.2727 19.1477 12.2727C19.8144 12.2727 20.3939 12.5152 20.8864 13C21.3864 13.4848 21.6402 14.0682 21.6477 14.75C21.6402 15.2121 21.5189 15.6326 21.2841 16.0114C21.0568 16.3902 20.7538 16.6932 20.375 16.9205C20.0038 17.1402 19.5947 17.25 19.1477 17.25ZM35.6477 17.25C34.9583 17.25 34.3674 17.0076 33.875 16.5227C33.3826 16.0379 33.1402 15.447 33.1477 14.75C33.1402 14.0682 33.3826 13.4848 33.875 13C34.3674 12.5152 34.9583 12.2727 35.6477 12.2727C36.3144 12.2727 36.8939 12.5152 37.3864 13C37.8864 13.4848 38.1402 14.0682 38.1477 14.75C38.1402 15.2121 38.0189 15.6326 37.7841 16.0114C37.5568 16.3902 37.2538 16.6932 36.875 16.9205C36.5038 17.1402 36.0947 17.25 35.6477 17.25ZM52.1477 17.25C51.4583 17.25 50.8674 17.0076 50.375 16.5227C49.8826 16.0379 49.6402 15.447 49.6477 14.75C49.6402 14.0682 49.8826 13.4848 50.375 13C50.8674 12.5152 51.4583 12.2727 52.1477 12.2727C52.8144 12.2727 53.3939 12.5152 53.8864 13C54.3864 13.4848 54.6402 14.0682 54.6477 14.75C54.6402 15.2121 54.5189 15.6326 54.2841 16.0114C54.0568 16.3902 53.7538 16.6932 53.375 16.9205C53.0038 17.1402 52.5947 17.25 52.1477 17.25ZM68.6477 17.25C67.9583 17.25 67.3674 17.0076 66.875 16.5227C66.3826 16.0379 66.1402 15.447 66.1477 14.75C66.1402 14.0682 66.3826 13.4848 66.875 13C67.3674 12.5152 67.9583 12.2727 68.6477 12.2727C69.3144 12.2727 69.8939 12.5152 70.3864 13C70.8864 13.4848 71.1402 14.0682 71.1477 14.75C71.1402 15.2121 71.0189 15.6326 70.7841 16.0114C70.5568 16.3902 70.2538 16.6932 69.875 16.9205C69.5038 17.1402 69.0947 17.25 68.6477 17.25ZM85.1477 17.25C84.4583 17.25 83.8674 17.0076 83.375 16.5227C82.8826 16.0379 82.6402 15.447 82.6477 14.75C82.6402 14.0682 82.8826 13.4848 83.375 13C83.8674 12.5152 84.4583 12.2727 85.1477 12.2727C85.8144 12.2727 86.3939 12.5152 86.8864 13C87.3864 13.4848 87.6402 14.0682 87.6477 14.75C87.6402 15.2121 87.5189 15.6326 87.2841 16.0114C87.0568 16.3902 86.7538 16.6932 86.375 16.9205C86.0038 17.1402 85.5947 17.25 85.1477 17.25ZM101.648 17.25C100.958 17.25 100.367 17.0076 99.875 16.5227C99.3826 16.0379 99.1402 15.447 99.1477 14.75C99.1402 14.0682 99.3826 13.4848 99.875 13C100.367 12.5152 100.958 12.2727 101.648 12.2727C102.314 12.2727 102.894 12.5152 103.386 13C103.886 13.4848 104.14 14.0682 104.148 14.75C104.14 15.2121 104.019 15.6326 103.784 16.0114C103.557 16.3902 103.254 16.6932 102.875 16.9205C102.504 17.1402 102.095 17.25 101.648 17.25ZM118.148 17.25C117.458 17.25 116.867 17.0076 116.375 16.5227C115.883 16.0379 115.64 15.447 115.648 14.75C115.64 14.0682 115.883 13.4848 116.375 13C116.867 12.5152 117.458 12.2727 118.148 12.2727C118.814 12.2727 119.394 12.5152 119.886 13C120.386 13.4848 120.64 14.0682 120.648 14.75C120.64 15.2121 120.519 15.6326 120.284 16.0114C120.057 16.3902 119.754 16.6932 119.375 16.9205C119.004 17.1402 118.595 17.25 118.148 17.25ZM2.64773 29.25C1.95833 29.25 1.36742 29.0076 0.875 28.5227C0.382576 28.0379 0.140152 27.447 0.147727 26.75C0.140152 26.0682 0.382576 25.4848 0.875 25C1.36742 24.5152 1.95833 24.2727 2.64773 24.2727C3.31439 24.2727 3.89394 24.5152 4.38636 25C4.88636 25.4848 5.14015 26.0682 5.14773 26.75C5.14015 27.2121 5.01894 27.6326 4.78409 28.0114C4.55682 28.3902 4.25379 28.6932 3.875 28.9205C3.50379 29.1402 3.0947 29.25 2.64773 29.25ZM19.1477 29.25C18.4583 29.25 17.8674 29.0076 17.375 28.5227C16.8826 28.0379 16.6402 27.447 16.6477 26.75C16.6402 26.0682 16.8826 25.4848 17.375 25C17.8674 24.5152 18.4583 24.2727 19.1477 24.2727C19.8144 24.2727 20.3939 24.5152 20.8864 25C21.3864 25.4848 21.6402 26.0682 21.6477 26.75C21.6402 27.2121 21.5189 27.6326 21.2841 28.0114C21.0568 28.3902 20.7538 28.6932 20.375 28.9205C20.0038 29.1402 19.5947 29.25 19.1477 29.25ZM35.6477 29.25C34.9583 29.25 34.3674 29.0076 33.875 28.5227C33.3826 28.0379 33.1402 27.447 33.1477 26.75C33.1402 26.0682 33.3826 25.4848 33.875 25C34.3674 24.5152 34.9583 24.2727 35.6477 24.2727C36.3144 24.2727 36.8939 24.5152 37.3864 25C37.8864 25.4848 38.1402 26.0682 38.1477 26.75C38.1402 27.2121 38.0189 27.6326 37.7841 28.0114C37.5568 28.3902 37.2538 28.6932 36.875 28.9205C36.5038 29.1402 36.0947 29.25 35.6477 29.25ZM52.1477 29.25C51.4583 29.25 50.8674 29.0076 50.375 28.5227C49.8826 28.0379 49.6402 27.447 49.6477 26.75C49.6402 26.0682 49.8826 25.4848 50.375 25C50.8674 24.5152 51.4583 24.2727 52.1477 24.2727C52.8144 24.2727 53.3939 24.5152 53.8864 25C54.3864 25.4848 54.6402 26.0682 54.6477 26.75C54.6402 27.2121 54.5189 27.6326 54.2841 28.0114C54.0568 28.3902 53.7538 28.6932 53.375 28.9205C53.0038 29.1402 52.5947 29.25 52.1477 29.25ZM68.6477 29.25C67.9583 29.25 67.3674 29.0076 66.875 28.5227C66.3826 28.0379 66.1402 27.447 66.1477 26.75C66.1402 26.0682 66.3826 25.4848 66.875 25C67.3674 24.5152 67.9583 24.2727 68.6477 24.2727C69.3144 24.2727 69.8939 24.5152 70.3864 25C70.8864 25.4848 71.1402 26.0682 71.1477 26.75C71.1402 27.2121 71.0189 27.6326 70.7841 28.0114C70.5568 28.3902 70.2538 28.6932 69.875 28.9205C69.5038 29.1402 69.0947 29.25 68.6477 29.25ZM85.1477 29.25C84.4583 29.25 83.8674 29.0076 83.375 28.5227C82.8826 28.0379 82.6402 27.447 82.6477 26.75C82.6402 26.0682 82.8826 25.4848 83.375 25C83.8674 24.5152 84.4583 24.2727 85.1477 24.2727C85.8144 24.2727 86.3939 24.5152 86.8864 25C87.3864 25.4848 87.6402 26.0682 87.6477 26.75C87.6402 27.2121 87.5189 27.6326 87.2841 28.0114C87.0568 28.3902 86.7538 28.6932 86.375 28.9205C86.0038 29.1402 85.5947 29.25 85.1477 29.25ZM101.648 29.25C100.958 29.25 100.367 29.0076 99.875 28.5227C99.3826 28.0379 99.1402 27.447 99.1477 26.75C99.1402 26.0682 99.3826 25.4848 99.875 25C100.367 24.5152 100.958 24.2727 101.648 24.2727C102.314 24.2727 102.894 24.5152 103.386 25C103.886 25.4848 104.14 26.0682 104.148 26.75C104.14 27.2121 104.019 27.6326 103.784 28.0114C103.557 28.3902 103.254 28.6932 102.875 28.9205C102.504 29.1402 102.095 29.25 101.648 29.25ZM118.148 29.25C117.458 29.25 116.867 29.0076 116.375 28.5227C115.883 28.0379 115.64 27.447 115.648 26.75C115.64 26.0682 115.883 25.4848 116.375 25C116.867 24.5152 117.458 24.2727 118.148 24.2727C118.814 24.2727 119.394 24.5152 119.886 25C120.386 25.4848 120.64 26.0682 120.648 26.75C120.64 27.2121 120.519 27.6326 120.284 28.0114C120.057 28.3902 119.754 28.6932 119.375 28.9205C119.004 29.1402 118.595 29.25 118.148 29.25ZM2.64773 41.25C1.95833 41.25 1.36742 41.0076 0.875 40.5227C0.382576 40.0379 0.140152 39.447 0.147727 38.75C0.140152 38.0682 0.382576 37.4848 0.875 37C1.36742 36.5152 1.95833 36.2727 2.64773 36.2727C3.31439 36.2727 3.89394 36.5152 4.38636 37C4.88636 37.4848 5.14015 38.0682 5.14773 38.75C5.14015 39.2121 5.01894 39.6326 4.78409 40.0114C4.55682 40.3902 4.25379 40.6932 3.875 40.9205C3.50379 41.1402 3.0947 41.25 2.64773 41.25ZM19.1477 41.25C18.4583 41.25 17.8674 41.0076 17.375 40.5227C16.8826 40.0379 16.6402 39.447 16.6477 38.75C16.6402 38.0682 16.8826 37.4848 17.375 37C17.8674 36.5152 18.4583 36.2727 19.1477 36.2727C19.8144 36.2727 20.3939 36.5152 20.8864 37C21.3864 37.4848 21.6402 38.0682 21.6477 38.75C21.6402 39.2121 21.5189 39.6326 21.2841 40.0114C21.0568 40.3902 20.7538 40.6932 20.375 40.9205C20.0038 41.1402 19.5947 41.25 19.1477 41.25ZM35.6477 41.25C34.9583 41.25 34.3674 41.0076 33.875 40.5227C33.3826 40.0379 33.1402 39.447 33.1477 38.75C33.1402 38.0682 33.3826 37.4848 33.875 37C34.3674 36.5152 34.9583 36.2727 35.6477 36.2727C36.3144 36.2727 36.8939 36.5152 37.3864 37C37.8864 37.4848 38.1402 38.0682 38.1477 38.75C38.1402 39.2121 38.0189 39.6326 37.7841 40.0114C37.5568 40.3902 37.2538 40.6932 36.875 40.9205C36.5038 41.1402 36.0947 41.25 35.6477 41.25ZM52.1477 41.25C51.4583 41.25 50.8674 41.0076 50.375 40.5227C49.8826 40.0379 49.6402 39.447 49.6477 38.75C49.6402 38.0682 49.8826 37.4848 50.375 37C50.8674 36.5152 51.4583 36.2727 52.1477 36.2727C52.8144 36.2727 53.3939 36.5152 53.8864 37C54.3864 37.4848 54.6402 38.0682 54.6477 38.75C54.6402 39.2121 54.5189 39.6326 54.2841 40.0114C54.0568 40.3902 53.7538 40.6932 53.375 40.9205C53.0038 41.1402 52.5947 41.25 52.1477 41.25ZM68.6477 41.25C67.9583 41.25 67.3674 41.0076 66.875 40.5227C66.3826 40.0379 66.1402 39.447 66.1477 38.75C66.1402 38.0682 66.3826 37.4848 66.875 37C67.3674 36.5152 67.9583 36.2727 68.6477 36.2727C69.3144 36.2727 69.8939 36.5152 70.3864 37C70.8864 37.4848 71.1402 38.0682 71.1477 38.75C71.1402 39.2121 71.0189 39.6326 70.7841 40.0114C70.5568 40.3902 70.2538 40.6932 69.875 40.9205C69.5038 41.1402 69.0947 41.25 68.6477 41.25ZM85.1477 41.25C84.4583 41.25 83.8674 41.0076 83.375 40.5227C82.8826 40.0379 82.6402 39.447 82.6477 38.75C82.6402 38.0682 82.8826 37.4848 83.375 37C83.8674 36.5152 84.4583 36.2727 85.1477 36.2727C85.8144 36.2727 86.3939 36.5152 86.8864 37C87.3864 37.4848 87.6402 38.0682 87.6477 38.75C87.6402 39.2121 87.5189 39.6326 87.2841 40.0114C87.0568 40.3902 86.7538 40.6932 86.375 40.9205C86.0038 41.1402 85.5947 41.25 85.1477 41.25ZM101.648 41.25C100.958 41.25 100.367 41.0076 99.875 40.5227C99.3826 40.0379 99.1402 39.447 99.1477 38.75C99.1402 38.0682 99.3826 37.4848 99.875 37C100.367 36.5152 100.958 36.2727 101.648 36.2727C102.314 36.2727 102.894 36.5152 103.386 37C103.886 37.4848 104.14 38.0682 104.148 38.75C104.14 39.2121 104.019 39.6326 103.784 40.0114C103.557 40.3902 103.254 40.6932 102.875 40.9205C102.504 41.1402 102.095 41.25 101.648 41.25ZM118.148 41.25C117.458 41.25 116.867 41.0076 116.375 40.5227C115.883 40.0379 115.64 39.447 115.648 38.75C115.64 38.0682 115.883 37.4848 116.375 37C116.867 36.5152 117.458 36.2727 118.148 36.2727C118.814 36.2727 119.394 36.5152 119.886 37C120.386 37.4848 120.64 38.0682 120.648 38.75C120.64 39.2121 120.519 39.6326 120.284 40.0114C120.057 40.3902 119.754 40.6932 119.375 40.9205C119.004 41.1402 118.595 41.25 118.148 41.25ZM2.64773 53.25C1.95833 53.25 1.36742 53.0076 0.875 52.5227C0.382576 52.0379 0.140152 51.447 0.147727 50.75C0.140152 50.0682 0.382576 49.4848 0.875 49C1.36742 48.5152 1.95833 48.2727 2.64773 48.2727C3.31439 48.2727 3.89394 48.5152 4.38636 49C4.88636 49.4848 5.14015 50.0682 5.14773 50.75C5.14015 51.2121 5.01894 51.6326 4.78409 52.0114C4.55682 52.3902 4.25379 52.6932 3.875 52.9205C3.50379 53.1402 3.0947 53.25 2.64773 53.25ZM19.1477 53.25C18.4583 53.25 17.8674 53.0076 17.375 52.5227C16.8826 52.0379 16.6402 51.447 16.6477 50.75C16.6402 50.0682 16.8826 49.4848 17.375 49C17.8674 48.5152 18.4583 48.2727 19.1477 48.2727C19.8144 48.2727 20.3939 48.5152 20.8864 49C21.3864 49.4848 21.6402 50.0682 21.6477 50.75C21.6402 51.2121 21.5189 51.6326 21.2841 52.0114C21.0568 52.3902 20.7538 52.6932 20.375 52.9205C20.0038 53.1402 19.5947 53.25 19.1477 53.25ZM35.6477 53.25C34.9583 53.25 34.3674 53.0076 33.875 52.5227C33.3826 52.0379 33.1402 51.447 33.1477 50.75C33.1402 50.0682 33.3826 49.4848 33.875 49C34.3674 48.5152 34.9583 48.2727 35.6477 48.2727C36.3144 48.2727 36.8939 48.5152 37.3864 49C37.8864 49.4848 38.1402 50.0682 38.1477 50.75C38.1402 51.2121 38.0189 51.6326 37.7841 52.0114C37.5568 52.3902 37.2538 52.6932 36.875 52.9205C36.5038 53.1402 36.0947 53.25 35.6477 53.25ZM52.1477 53.25C51.4583 53.25 50.8674 53.0076 50.375 52.5227C49.8826 52.0379 49.6402 51.447 49.6477 50.75C49.6402 50.0682 49.8826 49.4848 50.375 49C50.8674 48.5152 51.4583 48.2727 52.1477 48.2727C52.8144 48.2727 53.3939 48.5152 53.8864 49C54.3864 49.4848 54.6402 50.0682 54.6477 50.75C54.6402 51.2121 54.5189 51.6326 54.2841 52.0114C54.0568 52.3902 53.7538 52.6932 53.375 52.9205C53.0038 53.1402 52.5947 53.25 52.1477 53.25ZM68.6477 53.25C67.9583 53.25 67.3674 53.0076 66.875 52.5227C66.3826 52.0379 66.1402 51.447 66.1477 50.75C66.1402 50.0682 66.3826 49.4848 66.875 49C67.3674 48.5152 67.9583 48.2727 68.6477 48.2727C69.3144 48.2727 69.8939 48.5152 70.3864 49C70.8864 49.4848 71.1402 50.0682 71.1477 50.75C71.1402 51.2121 71.0189 51.6326 70.7841 52.0114C70.5568 52.3902 70.2538 52.6932 69.875 52.9205C69.5038 53.1402 69.0947 53.25 68.6477 53.25ZM85.1477 53.25C84.4583 53.25 83.8674 53.0076 83.375 52.5227C82.8826 52.0379 82.6402 51.447 82.6477 50.75C82.6402 50.0682 82.8826 49.4848 83.375 49C83.8674 48.5152 84.4583 48.2727 85.1477 48.2727C85.8144 48.2727 86.3939 48.5152 86.8864 49C87.3864 49.4848 87.6402 50.0682 87.6477 50.75C87.6402 51.2121 87.5189 51.6326 87.2841 52.0114C87.0568 52.3902 86.7538 52.6932 86.375 52.9205C86.0038 53.1402 85.5947 53.25 85.1477 53.25ZM101.648 53.25C100.958 53.25 100.367 53.0076 99.875 52.5227C99.3826 52.0379 99.1402 51.447 99.1477 50.75C99.1402 50.0682 99.3826 49.4848 99.875 49C100.367 48.5152 100.958 48.2727 101.648 48.2727C102.314 48.2727 102.894 48.5152 103.386 49C103.886 49.4848 104.14 50.0682 104.148 50.75C104.14 51.2121 104.019 51.6326 103.784 52.0114C103.557 52.3902 103.254 52.6932 102.875 52.9205C102.504 53.1402 102.095 53.25 101.648 53.25ZM118.148 53.25C117.458 53.25 116.867 53.0076 116.375 52.5227C115.883 52.0379 115.64 51.447 115.648 50.75C115.64 50.0682 115.883 49.4848 116.375 49C116.867 48.5152 117.458 48.2727 118.148 48.2727C118.814 48.2727 119.394 48.5152 119.886 49C120.386 49.4848 120.64 50.0682 120.648 50.75C120.64 51.2121 120.519 51.6326 120.284 52.0114C120.057 52.3902 119.754 52.6932 119.375 52.9205C119.004 53.1402 118.595 53.25 118.148 53.25ZM2.64773 65.25C1.95833 65.25 1.36742 65.0076 0.875 64.5227C0.382576 64.0379 0.140152 63.447 0.147727 62.75C0.140152 62.0682 0.382576 61.4848 0.875 61C1.36742 60.5152 1.95833 60.2727 2.64773 60.2727C3.31439 60.2727 3.89394 60.5152 4.38636 61C4.88636 61.4848 5.14015 62.0682 5.14773 62.75C5.14015 63.2121 5.01894 63.6326 4.78409 64.0114C4.55682 64.3902 4.25379 64.6932 3.875 64.9205C3.50379 65.1402 3.0947 65.25 2.64773 65.25ZM19.1477 65.25C18.4583 65.25 17.8674 65.0076 17.375 64.5227C16.8826 64.0379 16.6402 63.447 16.6477 62.75C16.6402 62.0682 16.8826 61.4848 17.375 61C17.8674 60.5152 18.4583 60.2727 19.1477 60.2727C19.8144 60.2727 20.3939 60.5152 20.8864 61C21.3864 61.4848 21.6402 62.0682 21.6477 62.75C21.6402 63.2121 21.5189 63.6326 21.2841 64.0114C21.0568 64.3902 20.7538 64.6932 20.375 64.9205C20.0038 65.1402 19.5947 65.25 19.1477 65.25ZM35.6477 65.25C34.9583 65.25 34.3674 65.0076 33.875 64.5227C33.3826 64.0379 33.1402 63.447 33.1477 62.75C33.1402 62.0682 33.3826 61.4848 33.875 61C34.3674 60.5152 34.9583 60.2727 35.6477 60.2727C36.3144 60.2727 36.8939 60.5152 37.3864 61C37.8864 61.4848 38.1402 62.0682 38.1477 62.75C38.1402 63.2121 38.0189 63.6326 37.7841 64.0114C37.5568 64.3902 37.2538 64.6932 36.875 64.9205C36.5038 65.1402 36.0947 65.25 35.6477 65.25ZM52.1477 65.25C51.4583 65.25 50.8674 65.0076 50.375 64.5227C49.8826 64.0379 49.6402 63.447 49.6477 62.75C49.6402 62.0682 49.8826 61.4848 50.375 61C50.8674 60.5152 51.4583 60.2727 52.1477 60.2727C52.8144 60.2727 53.3939 60.5152 53.8864 61C54.3864 61.4848 54.6402 62.0682 54.6477 62.75C54.6402 63.2121 54.5189 63.6326 54.2841 64.0114C54.0568 64.3902 53.7538 64.6932 53.375 64.9205C53.0038 65.1402 52.5947 65.25 52.1477 65.25ZM68.6477 65.25C67.9583 65.25 67.3674 65.0076 66.875 64.5227C66.3826 64.0379 66.1402 63.447 66.1477 62.75C66.1402 62.0682 66.3826 61.4848 66.875 61C67.3674 60.5152 67.9583 60.2727 68.6477 60.2727C69.3144 60.2727 69.8939 60.5152 70.3864 61C70.8864 61.4848 71.1402 62.0682 71.1477 62.75C71.1402 63.2121 71.0189 63.6326 70.7841 64.0114C70.5568 64.3902 70.2538 64.6932 69.875 64.9205C69.5038 65.1402 69.0947 65.25 68.6477 65.25ZM85.1477 65.25C84.4583 65.25 83.8674 65.0076 83.375 64.5227C82.8826 64.0379 82.6402 63.447 82.6477 62.75C82.6402 62.0682 82.8826 61.4848 83.375 61C83.8674 60.5152 84.4583 60.2727 85.1477 60.2727C85.8144 60.2727 86.3939 60.5152 86.8864 61C87.3864 61.4848 87.6402 62.0682 87.6477 62.75C87.6402 63.2121 87.5189 63.6326 87.2841 64.0114C87.0568 64.3902 86.7538 64.6932 86.375 64.9205C86.0038 65.1402 85.5947 65.25 85.1477 65.25ZM101.648 65.25C100.958 65.25 100.367 65.0076 99.875 64.5227C99.3826 64.0379 99.1402 63.447 99.1477 62.75C99.1402 62.0682 99.3826 61.4848 99.875 61C100.367 60.5152 100.958 60.2727 101.648 60.2727C102.314 60.2727 102.894 60.5152 103.386 61C103.886 61.4848 104.14 62.0682 104.148 62.75C104.14 63.2121 104.019 63.6326 103.784 64.0114C103.557 64.3902 103.254 64.6932 102.875 64.9205C102.504 65.1402 102.095 65.25 101.648 65.25ZM118.148 65.25C117.458 65.25 116.867 65.0076 116.375 64.5227C115.883 64.0379 115.64 63.447 115.648 62.75C115.64 62.0682 115.883 61.4848 116.375 61C116.867 60.5152 117.458 60.2727 118.148 60.2727C118.814 60.2727 119.394 60.5152 119.886 61C120.386 61.4848 120.64 62.0682 120.648 62.75C120.64 63.2121 120.519 63.6326 120.284 64.0114C120.057 64.3902 119.754 64.6932 119.375 64.9205C119.004 65.1402 118.595 65.25 118.148 65.25Z" fill="#E9ABD4"/>
</svg>
