<svg width="240" height="278" viewBox="0 0 240 278" fill="none" xmlns="http://www.w3.org/2000/svg">
<rect x="0.5" y="0.5" width="239" height="277" rx="24.5" fill="white" stroke="#B89696"/>
<path d="M27.0511 184.648V183.455H37.598V184.648H32.9886V198H31.6605V184.648H27.0511ZM41.8878 198.249C41.2296 198.249 40.6283 198.121 40.0838 197.865C39.5393 197.605 39.1061 197.231 38.7841 196.743C38.4621 196.25 38.3011 195.654 38.3011 194.953C38.3011 194.413 38.4029 193.959 38.6065 193.589C38.8101 193.22 39.099 192.917 39.473 192.68C39.8471 192.444 40.2898 192.257 40.8011 192.119C41.3125 191.982 41.8759 191.875 42.4915 191.8C43.1023 191.724 43.6184 191.658 44.0398 191.601C44.4659 191.544 44.7902 191.454 45.0128 191.331C45.2353 191.208 45.3466 191.009 45.3466 190.734V190.479C45.3466 189.735 45.1241 189.151 44.679 188.724C44.2386 188.294 43.6042 188.078 42.7756 188.078C41.9896 188.078 41.348 188.251 40.8509 188.597C40.3584 188.942 40.0128 189.349 39.8139 189.818L38.6136 189.385C38.8598 188.788 39.2008 188.312 39.6364 187.957C40.072 187.598 40.5597 187.339 41.0994 187.183C41.6392 187.022 42.1861 186.942 42.7401 186.942C43.1567 186.942 43.59 186.996 44.0398 187.105C44.4943 187.214 44.9157 187.403 45.304 187.673C45.6922 187.938 46.0071 188.31 46.2486 188.788C46.4901 189.262 46.6108 189.863 46.6108 190.592V198H45.3466V196.274H45.2685C45.117 196.596 44.892 196.909 44.5938 197.212C44.2955 197.515 43.9214 197.763 43.4716 197.957C43.0218 198.152 42.4938 198.249 41.8878 198.249ZM42.0582 197.091C42.7306 197.091 43.313 196.942 43.8054 196.643C44.2978 196.345 44.6766 195.95 44.9418 195.457C45.2116 194.96 45.3466 194.413 45.3466 193.817V192.24C45.2519 192.33 45.0933 192.411 44.8707 192.482C44.6529 192.553 44.3996 192.616 44.1108 192.673C43.8267 192.725 43.5426 192.77 43.2585 192.808C42.9744 192.846 42.7188 192.879 42.4915 192.908C41.8759 192.983 41.3504 193.102 40.9148 193.263C40.4792 193.424 40.1454 193.646 39.9134 193.93C39.6813 194.21 39.5653 194.57 39.5653 195.01C39.5653 195.673 39.8021 196.187 40.2756 196.551C40.7491 196.911 41.3433 197.091 42.0582 197.091ZM51.1243 193.881L51.1101 192.226H51.3942L56.5078 187.091H58.1058L53.0561 192.148L52.9425 192.169L51.1243 193.881ZM49.9737 198V183.455H51.2379V198H49.9737ZM56.7706 198L52.3388 192.396L53.2479 191.523L58.3899 198H56.7706ZM64.4428 198.227C63.4248 198.227 62.5442 197.991 61.8008 197.517C61.0574 197.039 60.4821 196.378 60.0749 195.536C59.6725 194.688 59.4712 193.713 59.4712 192.609C59.4712 191.511 59.6725 190.536 60.0749 189.683C60.4821 188.826 61.0432 188.156 61.7582 187.673C62.4779 187.186 63.3088 186.942 64.2511 186.942C64.8429 186.942 65.4135 187.051 65.9627 187.268C66.512 187.482 67.0044 187.811 67.44 188.256C67.8803 188.696 68.2283 189.252 68.484 189.925C68.7397 190.592 68.8675 191.383 68.8675 192.297V192.922H60.3448V191.807H67.5749C67.5749 191.106 67.4329 190.476 67.1488 189.918C66.8694 189.354 66.4788 188.909 65.9769 188.582C65.4798 188.256 64.9045 188.092 64.2511 188.092C63.5598 188.092 62.9513 188.277 62.4258 188.646C61.9002 189.016 61.4883 189.503 61.19 190.109C60.8964 190.715 60.7473 191.378 60.7425 192.098V192.766C60.7425 193.632 60.8917 194.39 61.19 195.038C61.493 195.682 61.9215 196.182 62.4755 196.537C63.0295 196.892 63.6853 197.07 64.4428 197.07C64.9589 197.07 65.4111 196.989 65.7994 196.828C66.1924 196.667 66.5214 196.452 66.7866 196.182C67.0565 195.907 67.2601 195.607 67.3974 195.28L68.5977 195.67C68.4319 196.13 68.1597 196.554 67.7809 196.942C67.4068 197.33 66.9381 197.643 66.3746 197.879C65.8159 198.111 65.172 198.227 64.4428 198.227ZM81.5753 187.091V188.192H76.3693V187.091H81.5753ZM77.9957 184.477H79.267V195.152C79.267 195.607 79.3452 195.964 79.5014 196.224C79.6577 196.48 79.8613 196.662 80.1122 196.771C80.3632 196.875 80.6307 196.928 80.9148 196.928C81.0805 196.928 81.2225 196.918 81.3409 196.899C81.4593 196.875 81.5634 196.852 81.6534 196.828L81.9233 197.972C81.8002 198.019 81.6487 198.062 81.4688 198.099C81.2888 198.142 81.0663 198.163 80.8011 198.163C80.3371 198.163 79.8897 198.062 79.4588 197.858C79.0327 197.654 78.6823 197.351 78.4077 196.949C78.133 196.546 77.9957 196.047 77.9957 195.45V184.477ZM85.945 191.182V198H84.6808V183.455H85.945V188.803H86.0586C86.3143 188.239 86.7096 187.789 87.2447 187.453C87.7844 187.117 88.4663 186.949 89.2901 186.949C90.0288 186.949 90.6774 187.1 91.2362 187.403C91.7949 187.706 92.2305 188.154 92.543 188.746C92.8555 189.338 93.0117 190.067 93.0117 190.933V198H91.7404V191.011C91.7404 190.112 91.4895 189.404 90.9876 188.888C90.4904 188.367 89.8181 188.107 88.9705 188.107C88.3881 188.107 87.8697 188.23 87.4151 188.476C86.9606 188.722 86.6007 189.077 86.3356 189.541C86.0752 190 85.945 190.547 85.945 191.182ZM100.751 198.227C99.7334 198.227 98.8527 197.991 98.1094 197.517C97.366 197.039 96.7907 196.378 96.3835 195.536C95.9811 194.688 95.7798 193.713 95.7798 192.609C95.7798 191.511 95.9811 190.536 96.3835 189.683C96.7907 188.826 97.3518 188.156 98.0668 187.673C98.7865 187.186 99.6174 186.942 100.56 186.942C101.152 186.942 101.722 187.051 102.271 187.268C102.821 187.482 103.313 187.811 103.749 188.256C104.189 188.696 104.537 189.252 104.793 189.925C105.048 190.592 105.176 191.383 105.176 192.297V192.922H96.6534V191.807H103.884C103.884 191.106 103.741 190.476 103.457 189.918C103.178 189.354 102.787 188.909 102.286 188.582C101.788 188.256 101.213 188.092 100.56 188.092C99.8684 188.092 99.2599 188.277 98.7344 188.646C98.2088 189.016 97.7969 189.503 97.4986 190.109C97.205 190.715 97.0559 191.378 97.0511 192.098V192.766C97.0511 193.632 97.2003 194.39 97.4986 195.038C97.8016 195.682 98.2301 196.182 98.7841 196.537C99.3381 196.892 99.9938 197.07 100.751 197.07C101.268 197.07 101.72 196.989 102.108 196.828C102.501 196.667 102.83 196.452 103.095 196.182C103.365 195.907 103.569 195.607 103.706 195.28L104.906 195.67C104.741 196.13 104.468 196.554 104.089 196.942C103.715 197.33 103.247 197.643 102.683 197.879C102.125 198.111 101.481 198.227 100.751 198.227ZM117.884 187.091V188.192H112.678V187.091H117.884ZM114.304 184.477H115.576V195.152C115.576 195.607 115.654 195.964 115.81 196.224C115.966 196.48 116.17 196.662 116.421 196.771C116.672 196.875 116.939 196.928 117.223 196.928C117.389 196.928 117.531 196.918 117.65 196.899C117.768 196.875 117.872 196.852 117.962 196.828L118.232 197.972C118.109 198.019 117.957 198.062 117.777 198.099C117.597 198.142 117.375 198.163 117.11 198.163C116.646 198.163 116.198 198.062 115.767 197.858C115.341 197.654 114.991 197.351 114.716 196.949C114.442 196.546 114.304 196.047 114.304 195.45V184.477ZM120.755 198V187.091H121.984V188.767H122.076C122.294 188.218 122.673 187.775 123.212 187.439C123.757 187.098 124.372 186.928 125.059 186.928C125.163 186.928 125.279 186.93 125.407 186.935C125.535 186.939 125.641 186.944 125.727 186.949V188.234C125.67 188.225 125.57 188.211 125.428 188.192C125.286 188.173 125.132 188.163 124.967 188.163C124.398 188.163 123.892 188.284 123.447 188.526C123.006 188.762 122.658 189.091 122.403 189.513C122.147 189.934 122.019 190.415 122.019 190.955V198H120.755ZM130.931 198.249C130.273 198.249 129.671 198.121 129.127 197.865C128.582 197.605 128.149 197.231 127.827 196.743C127.505 196.25 127.344 195.654 127.344 194.953C127.344 194.413 127.446 193.959 127.65 193.589C127.853 193.22 128.142 192.917 128.516 192.68C128.89 192.444 129.333 192.257 129.844 192.119C130.355 191.982 130.919 191.875 131.534 191.8C132.145 191.724 132.661 191.658 133.083 191.601C133.509 191.544 133.833 191.454 134.056 191.331C134.278 191.208 134.39 191.009 134.39 190.734V190.479C134.39 189.735 134.167 189.151 133.722 188.724C133.282 188.294 132.647 188.078 131.819 188.078C131.033 188.078 130.391 188.251 129.894 188.597C129.401 188.942 129.056 189.349 128.857 189.818L127.657 189.385C127.903 188.788 128.244 188.312 128.679 187.957C129.115 187.598 129.603 187.339 130.142 187.183C130.682 187.022 131.229 186.942 131.783 186.942C132.2 186.942 132.633 186.996 133.083 187.105C133.537 187.214 133.959 187.403 134.347 187.673C134.735 187.938 135.05 188.31 135.292 188.788C135.533 189.262 135.654 189.863 135.654 190.592V198H134.39V196.274H134.311C134.16 196.596 133.935 196.909 133.637 197.212C133.338 197.515 132.964 197.763 132.515 197.957C132.065 198.152 131.537 198.249 130.931 198.249ZM131.101 197.091C131.774 197.091 132.356 196.942 132.848 196.643C133.341 196.345 133.72 195.95 133.985 195.457C134.255 194.96 134.39 194.413 134.39 193.817V192.24C134.295 192.33 134.136 192.411 133.914 192.482C133.696 192.553 133.443 192.616 133.154 192.673C132.87 192.725 132.586 192.77 132.301 192.808C132.017 192.846 131.762 192.879 131.534 192.908C130.919 192.983 130.393 193.102 129.958 193.263C129.522 193.424 129.188 193.646 128.956 193.93C128.724 194.21 128.608 194.57 128.608 195.01C128.608 195.673 128.845 196.187 129.319 196.551C129.792 196.911 130.386 197.091 131.101 197.091ZM142.944 198.227C142.049 198.227 141.266 197.991 140.593 197.517C139.921 197.044 139.395 196.383 139.017 195.536C138.643 194.688 138.456 193.701 138.456 192.574C138.456 191.452 138.643 190.469 139.017 189.626C139.395 188.779 139.923 188.121 140.6 187.652C141.278 187.179 142.066 186.942 142.966 186.942C143.628 186.942 144.18 187.06 144.62 187.297C145.061 187.529 145.413 187.818 145.679 188.163C145.944 188.509 146.15 188.845 146.297 189.172H146.41V183.455H147.681V198H146.446V195.976H146.297C146.15 196.307 145.941 196.648 145.672 196.999C145.402 197.344 145.044 197.635 144.599 197.872C144.159 198.109 143.607 198.227 142.944 198.227ZM143.093 197.07C143.799 197.07 144.4 196.878 144.897 196.494C145.395 196.106 145.773 195.573 146.034 194.896C146.299 194.214 146.431 193.433 146.431 192.553C146.431 191.681 146.301 190.912 146.041 190.244C145.78 189.572 145.402 189.046 144.904 188.668C144.407 188.284 143.804 188.092 143.093 188.092C142.364 188.092 141.749 188.291 141.247 188.689C140.75 189.082 140.371 189.615 140.11 190.287C139.855 190.959 139.727 191.714 139.727 192.553C139.727 193.4 139.857 194.165 140.118 194.847C140.378 195.528 140.757 196.071 141.254 196.473C141.756 196.871 142.369 197.07 143.093 197.07ZM155.693 198.227C154.675 198.227 153.794 197.991 153.051 197.517C152.307 197.039 151.732 196.378 151.325 195.536C150.922 194.688 150.721 193.713 150.721 192.609C150.721 191.511 150.922 190.536 151.325 189.683C151.732 188.826 152.293 188.156 153.008 187.673C153.728 187.186 154.559 186.942 155.501 186.942C156.093 186.942 156.663 187.051 157.213 187.268C157.762 187.482 158.254 187.811 158.69 188.256C159.13 188.696 159.478 189.252 159.734 189.925C159.99 190.592 160.118 191.383 160.118 192.297V192.922H151.595V191.807H158.825C158.825 191.106 158.683 190.476 158.399 189.918C158.119 189.354 157.729 188.909 157.227 188.582C156.73 188.256 156.154 188.092 155.501 188.092C154.81 188.092 154.201 188.277 153.676 188.646C153.15 189.016 152.738 189.503 152.44 190.109C152.146 190.715 151.997 191.378 151.993 192.098V192.766C151.993 193.632 152.142 194.39 152.44 195.038C152.743 195.682 153.172 196.182 153.725 196.537C154.279 196.892 154.935 197.07 155.693 197.07C156.209 197.07 156.661 196.989 157.049 196.828C157.442 196.667 157.771 196.452 158.037 196.182C158.306 195.907 158.51 195.607 158.647 195.28L159.848 195.67C159.682 196.13 159.41 196.554 159.031 196.942C158.657 197.33 158.188 197.643 157.625 197.879C157.066 198.111 156.422 198.227 155.693 198.227ZM34.9986 213.484L33.8409 213.811C33.7273 213.484 33.5663 213.188 33.358 212.923C33.1496 212.658 32.8774 212.447 32.5412 212.291C32.2098 212.135 31.7978 212.057 31.3054 212.057C30.5668 212.057 29.9607 212.232 29.4872 212.582C29.0137 212.933 28.777 213.385 28.777 213.939C28.777 214.408 28.938 214.789 29.2599 215.082C29.5866 215.371 30.0885 215.601 30.7656 215.771L32.4134 216.176C33.3272 216.399 34.0114 216.751 34.4659 217.234C34.9252 217.717 35.1548 218.323 35.1548 219.053C35.1548 219.668 34.9844 220.215 34.6435 220.693C34.3026 221.171 33.8267 221.548 33.2159 221.822C32.6098 222.092 31.9067 222.227 31.1065 222.227C30.0412 222.227 29.1629 221.988 28.4716 221.51C27.7803 221.027 27.3376 220.331 27.1435 219.422L28.358 219.124C28.5142 219.772 28.8196 220.262 29.2741 220.594C29.7334 220.925 30.3371 221.091 31.0852 221.091C31.9233 221.091 32.5933 220.904 33.0952 220.53C33.5971 220.151 33.848 219.678 33.848 219.109C33.848 218.669 33.7012 218.3 33.4077 218.001C33.1141 217.698 32.669 217.476 32.0724 217.334L30.2898 216.908C29.3428 216.68 28.642 216.321 28.1875 215.828C27.733 215.336 27.5057 214.725 27.5057 213.996C27.5057 213.394 27.669 212.866 27.9957 212.412C28.3224 211.953 28.7723 211.593 29.3452 211.332C29.9181 211.072 30.5715 210.942 31.3054 210.942C32.3045 210.942 33.1023 211.169 33.6989 211.624C34.3002 212.073 34.7334 212.694 34.9986 213.484ZM40.9698 222.249C40.3117 222.249 39.7103 222.121 39.1658 221.865C38.6213 221.605 38.1881 221.231 37.8661 220.743C37.5442 220.25 37.3832 219.654 37.3832 218.953C37.3832 218.413 37.485 217.959 37.6886 217.589C37.8922 217.22 38.181 216.917 38.555 216.68C38.9291 216.444 39.3718 216.257 39.8832 216.119C40.3945 215.982 40.958 215.875 41.5735 215.8C42.1843 215.724 42.7004 215.658 43.1218 215.601C43.5479 215.544 43.8723 215.454 44.0948 215.331C44.3174 215.208 44.4286 215.009 44.4286 214.734V214.479C44.4286 213.735 44.2061 213.151 43.761 212.724C43.3207 212.294 42.6862 212.078 41.8576 212.078C41.0716 212.078 40.43 212.251 39.9329 212.597C39.4405 212.942 39.0948 213.349 38.896 213.818L37.6957 213.385C37.9419 212.788 38.2828 212.312 38.7184 211.957C39.154 211.598 39.6417 211.339 40.1815 211.183C40.7212 211.022 41.2681 210.942 41.8221 210.942C42.2388 210.942 42.672 210.996 43.1218 211.105C43.5763 211.214 43.9978 211.403 44.386 211.673C44.7743 211.938 45.0891 212.31 45.3306 212.788C45.5721 213.262 45.6928 213.863 45.6928 214.592V222H44.4286V220.274H44.3505C44.199 220.596 43.9741 220.909 43.6758 221.212C43.3775 221.515 43.0034 221.763 42.5536 221.957C42.1038 222.152 41.5759 222.249 40.9698 222.249ZM41.1403 221.091C41.8126 221.091 42.395 220.942 42.8874 220.643C43.3799 220.345 43.7586 219.95 44.0238 219.457C44.2937 218.96 44.4286 218.413 44.4286 217.817V216.24C44.3339 216.33 44.1753 216.411 43.9528 216.482C43.735 216.553 43.4817 216.616 43.1928 216.673C42.9087 216.725 42.6246 216.77 42.3406 216.808C42.0565 216.846 41.8008 216.879 41.5735 216.908C40.958 216.983 40.4324 217.102 39.9968 217.263C39.5612 217.424 39.2274 217.646 38.9954 217.93C38.7634 218.21 38.6474 218.57 38.6474 219.01C38.6474 219.673 38.8841 220.187 39.3576 220.551C39.8311 220.911 40.4253 221.091 41.1403 221.091ZM49.0558 222V211.091H50.2844V212.767H50.3981C50.6159 212.204 50.9781 211.761 51.4847 211.439C51.9961 211.112 52.6093 210.949 53.3242 210.949C54.0771 210.949 54.695 211.126 55.1779 211.482C55.6656 211.832 56.0302 212.315 56.2717 212.93H56.364C56.6102 212.324 57.0103 211.844 57.5643 211.489C58.123 211.129 58.8001 210.949 59.5955 210.949C60.6088 210.949 61.409 211.268 61.9961 211.908C62.5832 212.542 62.8768 213.47 62.8768 214.692V222H61.6126V214.692C61.6126 213.83 61.3924 213.184 60.9521 212.753C60.5117 212.322 59.9317 212.107 59.212 212.107C58.3787 212.107 57.7371 212.362 57.2873 212.874C56.8375 213.385 56.6126 214.034 56.6126 214.82V222H55.32V214.578C55.32 213.839 55.114 213.243 54.7021 212.788C54.2901 212.334 53.7101 212.107 52.962 212.107C52.4601 212.107 52.0079 212.23 51.6055 212.476C51.2077 212.722 50.8929 213.065 50.6609 213.506C50.4336 213.941 50.32 214.443 50.32 215.011V222H49.0558ZM70.6342 222.227C69.6162 222.227 68.7356 221.991 67.9922 221.517C67.2488 221.039 66.6735 220.378 66.2663 219.536C65.8639 218.688 65.6626 217.713 65.6626 216.609C65.6626 215.511 65.8639 214.536 66.2663 213.683C66.6735 212.826 67.2346 212.156 67.9496 211.673C68.6693 211.186 69.5002 210.942 70.4425 210.942C71.0343 210.942 71.6049 211.051 72.1541 211.268C72.7034 211.482 73.1958 211.811 73.6314 212.256C74.0717 212.696 74.4197 213.252 74.6754 213.925C74.9311 214.592 75.0589 215.383 75.0589 216.297V216.922H66.5362V215.807H73.7663C73.7663 215.106 73.6243 214.476 73.3402 213.918C73.0608 213.354 72.6702 212.909 72.1683 212.582C71.6712 212.256 71.0959 212.092 70.4425 212.092C69.7512 212.092 69.1428 212.277 68.6172 212.646C68.0916 213.016 67.6797 213.503 67.3814 214.109C67.0878 214.715 66.9387 215.378 66.9339 216.098V216.766C66.9339 217.632 67.0831 218.39 67.3814 219.038C67.6844 219.682 68.1129 220.182 68.6669 220.537C69.2209 220.892 69.8767 221.07 70.6342 221.07C71.1503 221.07 71.6025 220.989 71.9908 220.828C72.3838 220.667 72.7128 220.452 72.978 220.182C73.2479 219.907 73.4515 219.607 73.5888 219.28L74.7891 219.67C74.6233 220.13 74.3511 220.554 73.9723 220.942C73.5982 221.33 73.1295 221.643 72.5661 221.879C72.0073 222.111 71.3634 222.227 70.6342 222.227ZM83.484 222V211.091H84.7553V222H83.484ZM84.1303 209.216C83.8699 209.216 83.6474 209.128 83.4627 208.953C83.2781 208.773 83.1857 208.558 83.1857 208.307C83.1857 208.056 83.2781 207.843 83.4627 207.668C83.6474 207.488 83.8699 207.398 84.1303 207.398C84.3907 207.398 84.6133 207.488 84.7979 207.668C84.9826 207.843 85.0749 208.056 85.0749 208.307C85.0749 208.558 84.9826 208.773 84.7979 208.953C84.6133 209.128 84.3907 209.216 84.1303 209.216ZM89.3629 215.182V222H88.0987V211.091H89.3274V212.803H89.4411C89.6967 212.244 90.0945 211.796 90.6342 211.46C91.1787 211.119 91.8511 210.949 92.6513 210.949C93.3852 210.949 94.0291 211.103 94.5831 211.411C95.1418 211.714 95.575 212.161 95.8828 212.753C96.1953 213.345 96.3516 214.071 96.3516 214.933V222H95.0874V215.011C95.0874 214.116 94.8364 213.409 94.3345 212.888C93.8374 212.367 93.1697 212.107 92.3317 212.107C91.7588 212.107 91.2498 212.23 90.8047 212.476C90.3596 212.722 90.0069 213.077 89.7464 213.541C89.4908 214 89.3629 214.547 89.3629 215.182ZM106.186 226.091C105.935 226.091 105.701 226.067 105.483 226.02C105.266 225.973 105.093 225.92 104.965 225.864L105.306 224.749C105.737 224.881 106.12 224.929 106.456 224.891C106.792 224.857 107.091 224.706 107.351 224.436C107.612 224.171 107.844 223.764 108.047 223.214L108.445 222.107L104.432 211.091H105.803L109.042 220.331H109.141L112.38 211.091H113.75L109.134 223.726C108.94 224.251 108.701 224.689 108.417 225.04C108.132 225.395 107.803 225.658 107.429 225.828C107.06 226.003 106.646 226.091 106.186 226.091ZM120.073 222.227C119.131 222.227 118.298 221.988 117.573 221.51C116.853 221.032 116.29 220.371 115.883 219.528C115.476 218.681 115.272 217.703 115.272 216.595C115.272 215.478 115.476 214.495 115.883 213.648C116.29 212.795 116.853 212.133 117.573 211.659C118.298 211.181 119.131 210.942 120.073 210.942C121.015 210.942 121.846 211.181 122.566 211.659C123.286 212.137 123.849 212.8 124.256 213.648C124.668 214.495 124.874 215.478 124.874 216.595C124.874 217.703 124.671 218.681 124.263 219.528C123.856 220.371 123.29 221.032 122.566 221.51C121.846 221.988 121.015 222.227 120.073 222.227ZM120.073 221.07C120.831 221.07 121.472 220.866 121.998 220.459C122.523 220.052 122.921 219.509 123.191 218.832C123.466 218.155 123.603 217.41 123.603 216.595C123.603 215.781 123.466 215.033 123.191 214.351C122.921 213.669 122.523 213.122 121.998 212.71C121.472 212.298 120.831 212.092 120.073 212.092C119.32 212.092 118.679 212.298 118.148 212.71C117.623 213.122 117.223 213.669 116.948 214.351C116.678 215.033 116.543 215.781 116.543 216.595C116.543 217.41 116.678 218.155 116.948 218.832C117.223 219.509 117.623 220.052 118.148 220.459C118.674 220.866 119.316 221.07 120.073 221.07ZM134.581 217.831V211.091H135.846V222H134.581V220.189H134.482C134.226 220.748 133.821 221.214 133.267 221.588C132.713 221.957 132.036 222.142 131.236 222.142C130.54 222.142 129.922 221.991 129.382 221.688C128.843 221.38 128.419 220.93 128.111 220.338C127.803 219.746 127.65 219.019 127.65 218.158V211.091H128.914V218.08C128.914 218.932 129.165 219.618 129.667 220.139C130.168 220.655 130.812 220.913 131.598 220.913C132.091 220.913 132.564 220.795 133.019 220.558C133.473 220.321 133.847 219.976 134.141 219.521C134.435 219.062 134.581 218.499 134.581 217.831ZM139.192 222V211.091H140.421V212.767H140.513C140.731 212.218 141.11 211.775 141.65 211.439C142.194 211.098 142.81 210.928 143.496 210.928C143.601 210.928 143.717 210.93 143.844 210.935C143.972 210.939 144.079 210.944 144.164 210.949V212.234C144.107 212.225 144.008 212.211 143.866 212.192C143.724 212.173 143.57 212.163 143.404 212.163C142.836 212.163 142.329 212.284 141.884 212.526C141.444 212.762 141.096 213.091 140.84 213.513C140.585 213.934 140.457 214.415 140.457 214.955V222H139.192ZM27.9318 246V231.455H29.2031V237.172H29.3168C29.4588 236.845 29.6624 236.509 29.9276 236.163C30.1974 235.818 30.5502 235.529 30.9858 235.297C31.4261 235.06 31.9801 234.942 32.6477 234.942C33.5426 234.942 34.3286 235.179 35.0057 235.652C35.6828 236.121 36.2107 236.779 36.5895 237.626C36.9683 238.469 37.1577 239.452 37.1577 240.574C37.1577 241.701 36.9683 242.688 36.5895 243.536C36.2154 244.383 35.6899 245.044 35.0128 245.517C34.3404 245.991 33.5592 246.227 32.669 246.227C32.0062 246.227 31.4522 246.109 31.0071 245.872C30.5668 245.635 30.2116 245.344 29.9418 244.999C29.6719 244.648 29.4635 244.307 29.3168 243.976H29.1605V246H27.9318ZM29.1818 240.553C29.1818 241.433 29.312 242.214 29.5724 242.896C29.8376 243.573 30.2164 244.106 30.7088 244.494C31.206 244.878 31.8073 245.07 32.5128 245.07C33.2372 245.07 33.8504 244.871 34.3523 244.473C34.8542 244.071 35.2353 243.528 35.4957 242.847C35.7562 242.165 35.8864 241.4 35.8864 240.553C35.8864 239.714 35.7562 238.959 35.4957 238.287C35.2401 237.615 34.8613 237.082 34.3594 236.689C33.8575 236.291 33.242 236.092 32.5128 236.092C31.8026 236.092 31.1989 236.284 30.7017 236.668C30.2093 237.046 29.8329 237.572 29.5724 238.244C29.312 238.912 29.1818 239.681 29.1818 240.553ZM39.9347 246V235.091H41.1634V236.767H41.2557C41.4735 236.218 41.8523 235.775 42.392 235.439C42.9366 235.098 43.5521 234.928 44.2386 234.928C44.3428 234.928 44.4588 234.93 44.5866 234.935C44.7145 234.939 44.821 234.944 44.9062 234.949V236.234C44.8494 236.225 44.75 236.211 44.608 236.192C44.4659 236.173 44.312 236.163 44.1463 236.163C43.5781 236.163 43.0715 236.284 42.6264 236.526C42.1861 236.762 41.8381 237.091 41.5824 237.513C41.3267 237.934 41.1989 238.415 41.1989 238.955V246H39.9347ZM50.9716 246.227C50.0294 246.227 49.196 245.988 48.4716 245.51C47.7519 245.032 47.1884 244.371 46.7812 243.528C46.3741 242.681 46.1705 241.703 46.1705 240.595C46.1705 239.478 46.3741 238.495 46.7812 237.648C47.1884 236.795 47.7519 236.133 48.4716 235.659C49.196 235.181 50.0294 234.942 50.9716 234.942C51.9138 234.942 52.7448 235.181 53.4645 235.659C54.1842 236.137 54.7476 236.8 55.1548 237.648C55.5668 238.495 55.7727 239.478 55.7727 240.595C55.7727 241.703 55.5691 242.681 55.1619 243.528C54.7547 244.371 54.1889 245.032 53.4645 245.51C52.7448 245.988 51.9138 246.227 50.9716 246.227ZM50.9716 245.07C51.7292 245.07 52.3707 244.866 52.8963 244.459C53.4219 244.052 53.8196 243.509 54.0895 242.832C54.3641 242.155 54.5014 241.41 54.5014 240.595C54.5014 239.781 54.3641 239.033 54.0895 238.351C53.8196 237.669 53.4219 237.122 52.8963 236.71C52.3707 236.298 51.7292 236.092 50.9716 236.092C50.2188 236.092 49.5772 236.298 49.0469 236.71C48.5213 237.122 48.1212 237.669 47.8466 238.351C47.5767 239.033 47.4418 239.781 47.4418 240.595C47.4418 241.41 47.5767 242.155 47.8466 242.832C48.1212 243.509 48.5213 244.052 49.0469 244.459C49.5724 244.866 50.214 245.07 50.9716 245.07ZM59.6985 241.881L59.6843 240.226H59.9684L65.082 235.091H66.68L61.6303 240.148L61.5167 240.169L59.6985 241.881ZM58.5479 246V231.455H59.8121V246H58.5479ZM65.3448 246L60.913 240.396L61.8221 239.523L66.9641 246H65.3448ZM73.017 246.227C71.9991 246.227 71.1184 245.991 70.375 245.517C69.6316 245.039 69.0563 244.378 68.6491 243.536C68.2467 242.688 68.0455 241.713 68.0455 240.609C68.0455 239.511 68.2467 238.536 68.6491 237.683C69.0563 236.826 69.6174 236.156 70.3324 235.673C71.0521 235.186 71.883 234.942 72.8253 234.942C73.4171 234.942 73.9877 235.051 74.5369 235.268C75.0862 235.482 75.5786 235.811 76.0142 236.256C76.4545 236.696 76.8026 237.252 77.0582 237.925C77.3139 238.592 77.4418 239.383 77.4418 240.297V240.922H68.919V239.807H76.1491C76.1491 239.106 76.0071 238.476 75.723 237.918C75.4437 237.354 75.053 236.909 74.5511 236.582C74.054 236.256 73.4787 236.092 72.8253 236.092C72.134 236.092 71.5256 236.277 71 236.646C70.4744 237.016 70.0625 237.503 69.7642 238.109C69.4706 238.715 69.3215 239.378 69.3168 240.098V240.766C69.3168 241.632 69.4659 242.39 69.7642 243.038C70.0672 243.682 70.4957 244.182 71.0497 244.537C71.6037 244.892 72.2595 245.07 73.017 245.07C73.5331 245.07 73.9853 244.989 74.3736 244.828C74.7666 244.667 75.0956 244.452 75.3608 244.182C75.6307 243.907 75.8343 243.607 75.9716 243.28L77.1719 243.67C77.0062 244.13 76.7339 244.554 76.3551 244.942C75.9811 245.33 75.5123 245.643 74.9489 245.879C74.3902 246.111 73.7462 246.227 73.017 246.227ZM80.2276 246V235.091H81.4563V236.767H81.5487C81.7665 236.218 82.1452 235.775 82.685 235.439C83.2295 235.098 83.8451 234.928 84.5316 234.928C84.6358 234.928 84.7518 234.93 84.8796 234.935C85.0075 234.939 85.114 234.944 85.1992 234.949V236.234C85.1424 236.225 85.043 236.211 84.9009 236.192C84.7589 236.173 84.605 236.163 84.4393 236.163C83.8711 236.163 83.3645 236.284 82.9194 236.526C82.479 236.762 82.131 237.091 81.8754 237.513C81.6197 237.934 81.4918 238.415 81.4918 238.955V246H80.2276Z" fill="black"/>
<path d="M35.7159 146.091C35.6307 145.371 35.285 144.812 34.679 144.415C34.0729 144.017 33.3295 143.818 32.4489 143.818C31.8049 143.818 31.2415 143.922 30.7585 144.131C30.2803 144.339 29.9063 144.625 29.6364 144.99C29.3712 145.355 29.2386 145.769 29.2386 146.233C29.2386 146.621 29.331 146.955 29.5156 147.234C29.705 147.509 29.9465 147.739 30.2401 147.923C30.5336 148.103 30.8414 148.252 31.1634 148.371C31.4853 148.484 31.7812 148.577 32.0511 148.648L33.5284 149.045C33.9072 149.145 34.3286 149.282 34.7926 149.457C35.2614 149.633 35.7088 149.872 36.1349 150.175C36.5658 150.473 36.9209 150.857 37.2003 151.325C37.4796 151.794 37.6193 152.369 37.6193 153.051C37.6193 153.837 37.4134 154.547 37.0014 155.182C36.5942 155.816 35.9976 156.321 35.2116 156.695C34.4304 157.069 33.4811 157.256 32.3636 157.256C31.322 157.256 30.42 157.088 29.6577 156.751C28.9001 156.415 28.3035 155.946 27.8679 155.345C27.437 154.744 27.1932 154.045 27.1364 153.25H28.9545C29.0019 153.799 29.1866 154.254 29.5085 154.614C29.8352 154.969 30.2472 155.234 30.7443 155.409C31.2462 155.58 31.786 155.665 32.3636 155.665C33.036 155.665 33.6397 155.556 34.1747 155.338C34.7098 155.116 35.1335 154.808 35.446 154.415C35.7585 154.017 35.9148 153.553 35.9148 153.023C35.9148 152.54 35.7798 152.147 35.5099 151.844C35.2401 151.541 34.8849 151.295 34.4446 151.105C34.0043 150.916 33.5284 150.75 33.017 150.608L31.2273 150.097C30.0909 149.77 29.1913 149.304 28.5284 148.697C27.8655 148.091 27.5341 147.298 27.5341 146.318C27.5341 145.504 27.7543 144.794 28.1946 144.188C28.6397 143.577 29.2363 143.103 29.9844 142.767C30.7372 142.426 31.5777 142.256 32.5057 142.256C33.4432 142.256 34.2765 142.424 35.0057 142.76C35.7348 143.091 36.3125 143.546 36.7386 144.124C37.1695 144.701 37.3968 145.357 37.4205 146.091H35.7159ZM45.0323 146.091V147.511H39.3789V146.091H45.0323ZM41.0266 143.477H42.7028V153.875C42.7028 154.348 42.7714 154.704 42.9087 154.94C43.0508 155.172 43.2307 155.329 43.4485 155.409C43.671 155.485 43.9054 155.523 44.1516 155.523C44.3363 155.523 44.4878 155.513 44.6062 155.494C44.7246 155.471 44.8192 155.452 44.8903 155.438L45.2312 156.943C45.1175 156.986 44.9589 157.028 44.7553 157.071C44.5517 157.118 44.2937 157.142 43.9812 157.142C43.5077 157.142 43.0437 157.04 42.5891 156.837C42.1393 156.633 41.7653 156.323 41.467 155.906C41.1734 155.49 41.0266 154.964 41.0266 154.33V143.477ZM52.0103 157.227C50.9592 157.227 50.0524 156.995 49.2901 156.531C48.5326 156.062 47.9478 155.409 47.5359 154.571C47.1287 153.728 46.9251 152.748 46.9251 151.631C46.9251 150.513 47.1287 149.528 47.5359 148.676C47.9478 147.819 48.5207 147.152 49.2546 146.673C49.9933 146.19 50.855 145.949 51.8398 145.949C52.408 145.949 52.9691 146.044 53.5231 146.233C54.0771 146.422 54.5813 146.73 55.0359 147.156C55.4904 147.578 55.8526 148.136 56.1225 148.832C56.3924 149.528 56.5273 150.385 56.5273 151.403V152.114H48.1183V150.665H54.8228C54.8228 150.049 54.6997 149.5 54.4535 149.017C54.212 148.534 53.8664 148.153 53.4165 147.874C52.9715 147.594 52.4459 147.455 51.8398 147.455C51.1722 147.455 50.5946 147.62 50.1069 147.952C49.6239 148.278 49.2522 148.705 48.9918 149.23C48.7314 149.756 48.6012 150.319 48.6012 150.92V151.886C48.6012 152.71 48.7433 153.409 49.0273 153.982C49.3162 154.55 49.7163 154.983 50.2276 155.281C50.739 155.575 51.3332 155.722 52.0103 155.722C52.4506 155.722 52.8484 155.66 53.2035 155.537C53.5633 155.409 53.8735 155.22 54.1339 154.969C54.3943 154.713 54.5955 154.396 54.7376 154.017L56.3569 154.472C56.1864 155.021 55.9 155.504 55.4975 155.92C55.0951 156.332 54.5979 156.654 54.006 156.886C53.4142 157.114 52.7489 157.227 52.0103 157.227ZM59.0771 161.091V146.091H60.6964V147.824H60.8952C61.0183 147.634 61.1888 147.393 61.4066 147.099C61.6291 146.801 61.9464 146.536 62.3583 146.304C62.775 146.067 63.3384 145.949 64.0487 145.949C64.9672 145.949 65.7769 146.179 66.4776 146.638C67.1784 147.097 67.7253 147.748 68.1183 148.591C68.5112 149.434 68.7077 150.428 68.7077 151.574C68.7077 152.729 68.5112 153.731 68.1183 154.578C67.7253 155.421 67.1808 156.074 66.4847 156.538C65.7887 156.998 64.9862 157.227 64.0771 157.227C63.3763 157.227 62.8152 157.111 62.3938 156.879C61.9724 156.643 61.6481 156.375 61.4208 156.077C61.1935 155.774 61.0183 155.523 60.8952 155.324H60.7532V161.091H59.0771ZM60.7248 151.545C60.7248 152.369 60.8455 153.096 61.087 153.726C61.3285 154.351 61.6812 154.841 62.1452 155.196C62.6093 155.546 63.1774 155.722 63.8498 155.722C64.5505 155.722 65.1353 155.537 65.604 155.168C66.0775 154.794 66.4326 154.292 66.6694 153.662C66.9109 153.027 67.0316 152.322 67.0316 151.545C67.0316 150.778 66.9132 150.087 66.6765 149.472C66.4445 148.851 66.0917 148.361 65.6183 148.001C65.1495 147.637 64.56 147.455 63.8498 147.455C63.168 147.455 62.5951 147.627 62.131 147.973C61.667 148.314 61.3166 148.792 61.0799 149.408C60.8432 150.018 60.7248 150.731 60.7248 151.545ZM81.7759 157.199C80.8384 157.199 80.0027 157.038 79.2688 156.716C78.5397 156.394 77.9596 155.946 77.5288 155.374C77.1026 154.796 76.8706 154.126 76.8327 153.364H78.6225C78.6604 153.832 78.8214 154.237 79.1055 154.578C79.3896 154.914 79.7612 155.175 80.2205 155.359C80.6798 155.544 81.1888 155.636 81.7475 155.636C82.3725 155.636 82.9265 155.527 83.4094 155.31C83.8924 155.092 84.2712 154.789 84.5458 154.401C84.8204 154.012 84.9577 153.562 84.9577 153.051C84.9577 152.516 84.8252 152.045 84.56 151.638C84.2949 151.226 83.9066 150.904 83.3952 150.672C82.8839 150.44 82.2589 150.324 81.5202 150.324H80.3555V148.761H81.5202C82.0979 148.761 82.6045 148.657 83.0401 148.449C83.4805 148.241 83.8237 147.947 84.07 147.568C84.3209 147.189 84.4464 146.744 84.4464 146.233C84.4464 145.741 84.3375 145.312 84.1197 144.947C83.9019 144.583 83.5941 144.299 83.1964 144.095C82.8034 143.892 82.3394 143.79 81.8043 143.79C81.3024 143.79 80.829 143.882 80.3839 144.067C79.9435 144.247 79.5837 144.509 79.3043 144.855C79.025 145.196 78.8735 145.608 78.8498 146.091H77.1452C77.1737 145.329 77.4033 144.661 77.8342 144.088C78.265 143.51 78.8285 143.061 79.5245 142.739C80.2253 142.417 80.9947 142.256 81.8327 142.256C82.7324 142.256 83.5041 142.438 84.1481 142.803C84.792 143.162 85.2868 143.638 85.6325 144.23C85.9781 144.822 86.1509 145.461 86.1509 146.148C86.1509 146.967 85.9355 147.665 85.5046 148.243C85.0785 148.821 84.4985 149.221 83.7646 149.443V149.557C84.6831 149.708 85.4004 150.099 85.9165 150.729C86.4326 151.354 86.6907 152.128 86.6907 153.051C86.6907 153.842 86.4753 154.552 86.0444 155.182C85.6183 155.807 85.0359 156.299 84.2972 156.659C83.5586 157.019 82.7182 157.199 81.7759 157.199Z" fill="#5F3DE4"/>
</svg>
